<svg xmlns="http://www.w3.org/2000/svg" viewBox="0 0 19 18" width="19" height="18"
    preserveAspectRatio="xMidYMid meet"
    style="width: 100%; height: 100%; transform: translate3d(0px, 0px, 0px);">
    <defs>
        <clipPath id="__lottie_element_17">
            <rect width="19" height="18" x="0" y="0"></rect>
        </clipPath>
    </defs>
    <g clip-path="url(#__lottie_element_17)">
        <g transform="matrix(1,0,0,1,1,1.0012998580932617)" opacity="1" style="display: block;">
            <path fill="rgb(36,42,46)" fill-opacity="1"
                d=" M3.160900115966797,7.634300231933594 C2.072969913482666,7.029699802398682 1.1332999467849731,6.507599830627441 1.1332999467849731,5.477799892425537 C1.1332999467849731,4.448939800262451 2.072999954223633,3.927299976348877 3.160599946975708,3.322999954223633 C4.335430145263672,2.67084002494812 5.6666998863220215,1.9315999746322632 5.6666998863220215,0.4429999887943268 C5.666130065917969,0.2845200002193451 5.558000087738037,0.13830000162124634 5.382900238037109,0.059300001710653305 C5.207809925079346,-0.019829999655485153 4.992400169372559,-0.01979999989271164 4.817299842834473,0.059300001710653305 C4.642210006713867,0.1383100003004074 4.53410005569458,0.28450000286102295 4.5335001945495605,0.4429999887943268 C4.5335001945495605,1.4718600511550903 3.5938000679016113,1.993499994277954 2.506200075149536,2.5978000164031982 C1.3313699960708618,3.249959945678711 0.00009999999747378752,3.989300012588501 0.00009999999747378752,5.477799892425537 C0.00009999999747378752,6.967199802398682 1.3313000202178955,7.706999778747559 2.5058999061584473,8.35949993133545 C3.593830108642578,8.964099884033203 4.5335001945495605,9.486200332641602 4.5335001945495605,10.515999794006348 C4.5335001945495605,11.54574966430664 3.5938000679016113,12.067899703979492 2.5058999061584473,12.672499656677246 C1.3313599824905396,13.325090408325195 0.00009999999747378752,14.064900398254395 0.00009999999747378752,15.554200172424316 C0.00009999999747378752,15.712900161743164 0.10819999873638153,15.859600067138672 0.2833999991416931,15.93910026550293 C0.4587799906730652,16.018449783325195 0.6748999953269958,16.01849937438965 0.8500999808311462,15.93910026550293 C1.025480031967163,15.859640121459961 1.1334999799728394,15.712900161743164 1.1334999799728394,15.554200172424316 C1.1334999799728394,14.524450302124023 2.073199987411499,14.002300262451172 3.161099910736084,13.397700309753418 C4.335639953613281,12.745109558105469 5.666900157928467,12.005399703979492 5.666900157928467,10.515999794006348 C5.666900157928467,9.026650428771973 4.335700035095215,8.286800384521484 3.161099910736084,7.634300231933594 C3.161099910736084,7.634300231933594 3.160900115966797,7.634300231933594 3.160900115966797,7.634300231933594 C3.160900115966797,7.634300231933594 3.160900115966797,7.634300231933594 3.160900115966797,7.634300231933594z"></path>
        </g>
        <g transform="matrix(1,0,0,1,1,1.0012998580932617)" opacity="1" style="display: block;">
            <path stroke-linecap="butt" stroke-linejoin="miter" fill-opacity="0"
                stroke-miterlimit="0" stroke="rgb(36,42,46)" stroke-opacity="1" stroke-width="0.4"
                d=" M3.160900115966797,7.634300231933594 C2.072969913482666,7.029699802398682 1.1332999467849731,6.507599830627441 1.1332999467849731,5.477799892425537 C1.1332999467849731,4.448939800262451 2.072999954223633,3.927299976348877 3.160599946975708,3.322999954223633 C4.335430145263672,2.67084002494812 5.6666998863220215,1.9315999746322632 5.6666998863220215,0.4429999887943268 C5.666130065917969,0.2845200002193451 5.558000087738037,0.13830000162124634 5.382900238037109,0.059300001710653305 C5.207809925079346,-0.019829999655485153 4.992400169372559,-0.01979999989271164 4.817299842834473,0.059300001710653305 C4.642210006713867,0.1383100003004074 4.53410005569458,0.28450000286102295 4.5335001945495605,0.4429999887943268 C4.5335001945495605,1.4718600511550903 3.5938000679016113,1.993499994277954 2.506200075149536,2.5978000164031982 C1.3313699960708618,3.249959945678711 0.00009999999747378752,3.989300012588501 0.00009999999747378752,5.477799892425537 C0.00009999999747378752,6.967199802398682 1.3313000202178955,7.706999778747559 2.5058999061584473,8.35949993133545 C3.593830108642578,8.964099884033203 4.5335001945495605,9.486200332641602 4.5335001945495605,10.515999794006348 C4.5335001945495605,11.54574966430664 3.5938000679016113,12.067899703979492 2.5058999061584473,12.672499656677246 C1.3313599824905396,13.325090408325195 0.00009999999747378752,14.064900398254395 0.00009999999747378752,15.554200172424316 C0.00009999999747378752,15.712900161743164 0.10819999873638153,15.859600067138672 0.2833999991416931,15.93910026550293 C0.4587799906730652,16.018449783325195 0.6748999953269958,16.01849937438965 0.8500999808311462,15.93910026550293 C1.025480031967163,15.859640121459961 1.1334999799728394,15.712900161743164 1.1334999799728394,15.554200172424316 C1.1334999799728394,14.524450302124023 2.073199987411499,14.002300262451172 3.161099910736084,13.397700309753418 C4.335639953613281,12.745109558105469 5.666900157928467,12.005399703979492 5.666900157928467,10.515999794006348 C5.666900157928467,9.026650428771973 4.335700035095215,8.286800384521484 3.161099910736084,7.634300231933594 C3.161099910736084,7.634300231933594 3.160900115966797,7.634300231933594 3.160900115966797,7.634300231933594 C3.160900115966797,7.634300231933594 3.160900115966797,7.634300231933594 3.160900115966797,7.634300231933594z"></path>
        </g>
        <g transform="matrix(1,0,0,1,6.666999816894531,1)" opacity="1" style="display: block;">
            <path fill="rgb(36,42,46)" fill-opacity="1"
                d=" M3.161099910736084,7.635700225830078 C2.0731699466705322,7.031099796295166 1.1334999799728394,6.508999824523926 1.1334999799728394,5.4791998863220215 C1.1334999799728394,4.4503397941589355 2.073199987411499,3.9286999702453613 3.160799980163574,3.324399948120117 C4.335629940032959,2.6722400188446045 5.666900157928467,1.9329999685287476 5.666900157928467,0.44440001249313354 C5.666900157928467,0.2855899930000305 5.558899879455566,0.1388999968767166 5.383500099182129,0.05950000137090683 C5.2082600593566895,-0.019850000739097595 4.992199897766113,-0.01979999989271164 4.816800117492676,0.05950000137090683 C4.641419887542725,0.13885000348091125 4.533400058746338,0.2856000065803528 4.533400058746338,0.44440001249313354 C4.533400058746338,1.4732600450515747 3.5936999320983887,1.9950000047683716 2.5060999393463135,2.5992000102996826 C1.3312699794769287,3.2513599395751953 0,3.9907000064849854 0,5.4791998863220215 C0,6.968599796295166 1.3312000036239624,7.708399772644043 2.5058000087738037,8.360899925231934 C3.5937299728393555,8.965499877929688 4.533400058746338,9.487600326538086 4.533400058746338,10.517399787902832 C4.533400058746338,11.547149658203125 3.5936999320983887,12.069299697875977 2.5058000087738037,12.67389965057373 C1.3312599658966064,13.32649040222168 0,14.066300392150879 0,15.5556001663208 C0,15.714300155639648 0.1080000028014183,15.861000061035156 0.2833999991416931,15.940500259399414 C0.4586400091648102,16.01984977722168 0.6747000217437744,16.019899368286133 0.8500999808311462,15.940500259399414 C1.025480031967163,15.861040115356445 1.1334999799728394,15.714300155639648 1.1334999799728394,15.5556001663208 C1.1334999799728394,14.525850296020508 2.073199987411499,14.003700256347656 3.161099910736084,13.399100303649902 C4.335639953613281,12.746509552001953 5.666900157928467,12.006799697875977 5.666900157928467,10.517399787902832 C5.666900157928467,9.028050422668457 4.335700035095215,8.288200378417969 3.161099910736084,7.635700225830078 C3.161099910736084,7.635700225830078 3.161099910736084,7.635700225830078 3.161099910736084,7.635700225830078 C3.161099910736084,7.635700225830078 3.161099910736084,7.635700225830078 3.161099910736084,7.635700225830078z"></path>
        </g>
        <g transform="matrix(1,0,0,1,6.666999816894531,1)" opacity="1" style="display: block;">
            <path stroke-linecap="butt" stroke-linejoin="miter" fill-opacity="0"
                stroke-miterlimit="0" stroke="rgb(36,42,46)" stroke-opacity="1" stroke-width="0.4"
                d=" M3.161099910736084,7.635700225830078 C2.0731699466705322,7.031099796295166 1.1334999799728394,6.508999824523926 1.1334999799728394,5.4791998863220215 C1.1334999799728394,4.4503397941589355 2.073199987411499,3.9286999702453613 3.160799980163574,3.324399948120117 C4.335629940032959,2.6722400188446045 5.666900157928467,1.9329999685287476 5.666900157928467,0.44440001249313354 C5.666900157928467,0.2855899930000305 5.558899879455566,0.1388999968767166 5.383500099182129,0.05950000137090683 C5.2082600593566895,-0.019850000739097595 4.992199897766113,-0.01979999989271164 4.816800117492676,0.05950000137090683 C4.641419887542725,0.13885000348091125 4.533400058746338,0.2856000065803528 4.533400058746338,0.44440001249313354 C4.533400058746338,1.4732600450515747 3.5936999320983887,1.9950000047683716 2.5060999393463135,2.5992000102996826 C1.3312699794769287,3.2513599395751953 0,3.9907000064849854 0,5.4791998863220215 C0,6.968599796295166 1.3312000036239624,7.708399772644043 2.5058000087738037,8.360899925231934 C3.5937299728393555,8.965499877929688 4.533400058746338,9.487600326538086 4.533400058746338,10.517399787902832 C4.533400058746338,11.547149658203125 3.5936999320983887,12.069299697875977 2.5058000087738037,12.67389965057373 C1.3312599658966064,13.32649040222168 0,14.066300392150879 0,15.5556001663208 C0,15.714300155639648 0.1080000028014183,15.861000061035156 0.2833999991416931,15.940500259399414 C0.4586400091648102,16.01984977722168 0.6747000217437744,16.019899368286133 0.8500999808311462,15.940500259399414 C1.025480031967163,15.861040115356445 1.1334999799728394,15.714300155639648 1.1334999799728394,15.5556001663208 C1.1334999799728394,14.525850296020508 2.073199987411499,14.003700256347656 3.161099910736084,13.399100303649902 C4.335639953613281,12.746509552001953 5.666900157928467,12.006799697875977 5.666900157928467,10.517399787902832 C5.666900157928467,9.028050422668457 4.335700035095215,8.288200378417969 3.161099910736084,7.635700225830078 C3.161099910736084,7.635700225830078 3.161099910736084,7.635700225830078 3.161099910736084,7.635700225830078 C3.161099910736084,7.635700225830078 3.161099910736084,7.635700225830078 3.161099910736084,7.635700225830078z"></path>
        </g>
        <g
            transform="matrix(0.9999992847442627,0,0,0.9999992847442627,12.333002090454102,1.0000057220458984)"
            opacity="1" style="display: block;">
            <path fill="rgb(36,42,46)" fill-opacity="1"
                d=" M3.160900115966797,7.635700225830078 C2.072969913482666,7.031099796295166 1.1332999467849731,6.508999824523926 1.1332999467849731,5.4791998863220215 C1.1332999467849731,4.4503397941589355 2.072999954223633,3.9286999702453613 3.160599946975708,3.324399948120117 C4.335430145263672,2.6722400188446045 5.6666998863220215,1.9329999685287476 5.6666998863220215,0.44440001249313354 C5.6666998863220215,0.2855899930000305 5.558599948883057,0.1388999968767166 5.383399963378906,0.05950000137090683 C5.208020210266113,-0.019850000739097595 4.9918999671936035,-0.01979999989271164 4.816699981689453,0.05950000137090683 C4.64132022857666,0.13885000348091125 4.533299922943115,0.2856000065803528 4.533299922943115,0.44440001249313354 C4.533299922943115,1.4732600450515747 3.593600034713745,1.9950000047683716 2.50600004196167,2.5992000102996826 C1.3311699628829956,3.2513599395751953 -0.00009999999747378752,3.9907000064849854 -0.00009999999747378752,5.4791998863220215 C-0.00009999999747378752,6.968599796295166 1.3310999870300293,7.708399772644043 2.50570011138916,8.360899925231934 C3.593630075454712,8.965499877929688 4.533299922943115,9.487600326538086 4.533299922943115,10.517399787902832 C4.533299922943115,11.547149658203125 3.593600034713745,12.069299697875977 2.50570011138916,12.67389965057373 C1.3311599493026733,13.32649040222168 -0.00009999999747378752,14.066300392150879 -0.00009999999747378752,15.5556001663208 C0.00046999999904073775,15.714079856872559 0.10859999805688858,15.860300064086914 0.28369998931884766,15.939299583435059 C0.45879000425338745,16.018430709838867 0.6743000149726868,16.018400192260742 0.849399983882904,15.939299583435059 C1.0244899988174438,15.860289573669434 1.132599949836731,15.714099884033203 1.1332000494003296,15.5556001663208 C1.1332000494003296,14.525850296020508 2.0729000568389893,14.003700256347656 3.160799980163574,13.399100303649902 C4.3353400230407715,12.746509552001953 5.666600227355957,12.006799697875977 5.666600227355957,10.517399787902832 C5.666600227355957,9.028050422668457 4.3354997634887695,8.288200378417969 3.160799980163574,7.635700225830078 C3.160799980163574,7.635700225830078 3.160900115966797,7.635700225830078 3.160900115966797,7.635700225830078 C3.160900115966797,7.635700225830078 3.160900115966797,7.635700225830078 3.160900115966797,7.635700225830078z"></path>
        </g>
        <g
            transform="matrix(0.9999992847442627,0,0,0.9999992847442627,12.333002090454102,1.0000057220458984)"
            opacity="1" style="display: block;">
            <path stroke-linecap="butt" stroke-linejoin="miter" fill-opacity="0"
                stroke-miterlimit="0" stroke="rgb(36,42,46)" stroke-opacity="1" stroke-width="0.4"
                d=" M3.160900115966797,7.635700225830078 C2.072969913482666,7.031099796295166 1.1332999467849731,6.508999824523926 1.1332999467849731,5.4791998863220215 C1.1332999467849731,4.4503397941589355 2.072999954223633,3.9286999702453613 3.160599946975708,3.324399948120117 C4.335430145263672,2.6722400188446045 5.6666998863220215,1.9329999685287476 5.6666998863220215,0.44440001249313354 C5.6666998863220215,0.2855899930000305 5.558599948883057,0.1388999968767166 5.383399963378906,0.05950000137090683 C5.208020210266113,-0.019850000739097595 4.9918999671936035,-0.01979999989271164 4.816699981689453,0.05950000137090683 C4.64132022857666,0.13885000348091125 4.533299922943115,0.2856000065803528 4.533299922943115,0.44440001249313354 C4.533299922943115,1.4732600450515747 3.593600034713745,1.9950000047683716 2.50600004196167,2.5992000102996826 C1.3311699628829956,3.2513599395751953 -0.00009999999747378752,3.9907000064849854 -0.00009999999747378752,5.4791998863220215 C-0.00009999999747378752,6.968599796295166 1.3310999870300293,7.708399772644043 2.50570011138916,8.360899925231934 C3.593630075454712,8.965499877929688 4.533299922943115,9.487600326538086 4.533299922943115,10.517399787902832 C4.533299922943115,11.547149658203125 3.593600034713745,12.069299697875977 2.50570011138916,12.67389965057373 C1.3311599493026733,13.32649040222168 -0.00009999999747378752,14.066300392150879 -0.00009999999747378752,15.5556001663208 C0.00046999999904073775,15.714079856872559 0.10859999805688858,15.860300064086914 0.28369998931884766,15.939299583435059 C0.45879000425338745,16.018430709838867 0.6743000149726868,16.018400192260742 0.849399983882904,15.939299583435059 C1.0244899988174438,15.860289573669434 1.132599949836731,15.714099884033203 1.1332000494003296,15.5556001663208 C1.1332000494003296,14.525850296020508 2.0729000568389893,14.003700256347656 3.160799980163574,13.399100303649902 C4.3353400230407715,12.746509552001953 5.666600227355957,12.006799697875977 5.666600227355957,10.517399787902832 C5.666600227355957,9.028050422668457 4.3354997634887695,8.288200378417969 3.160799980163574,7.635700225830078 C3.160799980163574,7.635700225830078 3.160900115966797,7.635700225830078 3.160900115966797,7.635700225830078 C3.160900115966797,7.635700225830078 3.160900115966797,7.635700225830078 3.160900115966797,7.635700225830078z"></path>
        </g>
    </g>
</svg>