<svg xmlns="http://www.w3.org/2000/svg" viewBox="0 0 16 16" width="16" height="16"
    preserveAspectRatio="xMidYMid meet"
    style="width: 100%; height: 100%; transform: translate3d(0px, 0px, 0px);">
    <defs>
        <clipPath id="__lottie_element_142">
            <rect width="16" height="16" x="0" y="0"></rect>
        </clipPath>
    </defs>
    <g clip-path="url(#__lottie_element_142)">
        <g transform="matrix(1,0,0,1,5.599599838256836,5.599900245666504)" opacity="1"
            style="display: block;">
            <path fill="rgb(36,42,46)" fill-opacity="1"
                d=" M2.399899959564209,3.199700117111206 C1.9576300382614136,3.199700117111206 1.600100040435791,2.842099905014038 1.600100040435791,2.3998000621795654 C1.600100040435791,1.9575300216674805 1.9577000141143799,1.600000023841858 2.4000000953674316,1.600000023841858 C2.8422698974609375,1.600000023841858 3.1998000144958496,1.9574999809265137 3.1998000144958496,2.3998000621795654 C3.1998000144958496,2.8420701026916504 2.8422999382019043,3.199700117111206 2.4000000953674316,3.199700117111206 C2.4000000953674316,3.199700117111206 2.399899959564209,3.199700117111206 2.399899959564209,3.199700117111206 C2.399899959564209,3.199700117111206 2.399899959564209,3.199700117111206 2.399899959564209,3.199700117111206z M2.399899959564209,0 C1.0749000310897827,0 0,1.0743999481201172 0,2.399899959564209 C0,3.724900007247925 1.0749000310897827,4.799799919128418 2.399899959564209,4.799799919128418 C3.7255799770355225,4.799799919128418 4.799799919128418,3.724900007247925 4.799799919128418,2.399899959564209 C4.799799919128418,1.0743900537490845 3.725600004196167,0 2.399899959564209,0 C2.399899959564209,0 2.399899959564209,0 2.399899959564209,0 C2.399899959564209,0 2.399899959564209,0 2.399899959564209,0z"></path>
        </g>
        <g transform="matrix(1,0,0,1,0,10.262800216674805)" opacity="1" style="display: block;">
            <path fill="rgb(36,42,46)" fill-opacity="1"
                d=" M5.737199783325195,1.1311999559402466 C5.737199783325195,1.1311999559402466 1.131100058555603,5.737299919128418 1.131100058555603,5.737299919128418 C1.131100058555603,5.737299919128418 -0.00009999999747378752,4.606100082397461 -0.00009999999747378752,4.606100082397461 C-0.00009999999747378752,4.606100082397461 4.605999946594238,0 4.605999946594238,0 C4.605999946594238,0 5.737199783325195,1.1311999559402466 5.737199783325195,1.1311999559402466 C5.737199783325195,1.1311999559402466 5.737199783325195,1.1311999559402466 5.737199783325195,1.1311999559402466z"></path>
        </g>
        <g transform="matrix(1,0,0,1,10.26259994506836,10.262100219726562)" opacity="1"
            style="display: block;">
            <path fill="rgb(36,42,46)" fill-opacity="1"
                d=" M1.1311999559402466,0 C1.1311999559402466,0 5.737299919128418,4.606100082397461 5.737299919128418,4.606100082397461 C5.737299919128418,4.606100082397461 4.606100082397461,5.737299919128418 4.606100082397461,5.737299919128418 C4.606100082397461,5.737299919128418 0,1.1311999559402466 0,1.1311999559402466 C0,1.1311999559402466 1.1311999559402466,0 1.1311999559402466,0 C1.1311999559402466,0 1.1311999559402466,0 1.1311999559402466,0z"></path>
        </g>
        <g transform="matrix(1,0,0,1,10.261899948120117,0)" opacity="1" style="display: block;">
            <path fill="rgb(36,42,46)" fill-opacity="1"
                d=" M0,4.606100082397461 C0,4.606100082397461 4.606100082397461,0 4.606100082397461,0 C4.606100082397461,0 5.737299919128418,1.1311999559402466 5.737299919128418,1.1311999559402466 C5.737299919128418,1.1311999559402466 1.1311999559402466,5.737299919128418 1.1311999559402466,5.737299919128418 C1.1311999559402466,5.737299919128418 0,4.606100082397461 0,4.606100082397461 C0,4.606100082397461 0,4.606100082397461 0,4.606100082397461z"></path>
        </g>
        <g transform="matrix(1,0,0,1,0.0003001689910888672,0.00020003318786621094)" opacity="1"
            style="display: block;">
            <path fill="rgb(36,42,46)" fill-opacity="1"
                d=" M4.606100082397461,5.737199783325195 C4.606100082397461,5.737199783325195 0,1.131100058555603 0,1.131100058555603 C0,1.131100058555603 1.1311999559402466,-0.00009999999747378752 1.1311999559402466,-0.00009999999747378752 C1.1311999559402466,-0.00009999999747378752 5.737299919128418,4.605999946594238 5.737299919128418,4.605999946594238 C5.737299919128418,4.605999946594238 4.606100082397461,5.737199783325195 4.606100082397461,5.737199783325195 C4.606100082397461,5.737199783325195 4.606100082397461,5.737199783325195 4.606100082397461,5.737199783325195z"></path>
        </g>
    </g>
</svg>