<svg xmlns="http://www.w3.org/2000/svg" viewBox="0 0 16 16" width="16" height="16"
    preserveAspectRatio="xMidYMid meet"
    style="width: 100%; height: 100%; transform: translate3d(0px, 0px, 0px);">
    <defs>
        <clipPath id="__lottie_element_62">
            <rect width="16" height="16" x="0" y="0"></rect>
        </clipPath>
    </defs>
    <g clip-path="url(#__lottie_element_62)">
        <g transform="matrix(0.9999999403953552,0,0,0.9999999403953552,0,7.272900104522705)"
            opacity="1" style="display: block;">
            <path fill="rgb(36,42,46)" fill-opacity="1"
                d=" M0,0 C0,0 2.18179988861084,0 2.18179988861084,0 C2.18179988861084,0 2.18179988861084,1.454300045967102 2.18179988861084,1.454300045967102 C2.18179988861084,1.454300045967102 0,1.454300045967102 0,1.454300045967102 C0,1.454300045967102 0,0 0,0 C0,0 0,0 0,0z"></path>
        </g>
        <g transform="matrix(1,0,0,1,3.63670015335083,7.272900104522705)" opacity="1"
            style="display: block;">
            <path fill="rgb(36,42,46)" fill-opacity="1"
                d=" M0,0 C0,0 2.18179988861084,0 2.18179988861084,0 C2.18179988861084,0 2.18179988861084,1.454300045967102 2.18179988861084,1.454300045967102 C2.18179988861084,1.454300045967102 0,1.454300045967102 0,1.454300045967102 C0,1.454300045967102 0,0 0,0 C0,0 0,0 0,0z"></path>
        </g>
        <g transform="matrix(1,0,0,1,7.273399829864502,7.272900104522705)" opacity="1"
            style="display: block;">
            <path fill="rgb(36,42,46)" fill-opacity="1"
                d=" M0,0 C0,0 1.454300045967102,0 1.454300045967102,0 C1.454300045967102,0 1.454300045967102,1.454300045967102 1.454300045967102,1.454300045967102 C1.454300045967102,1.454300045967102 0,1.454300045967102 0,1.454300045967102 C0,1.454300045967102 0,0 0,0 C0,0 0,0 0,0z"></path>
        </g>
        <g transform="matrix(1,0,0,1,10.181600570678711,7.272900104522705)" opacity="1"
            style="display: block;">
            <path fill="rgb(36,42,46)" fill-opacity="1"
                d=" M0,0 C0,0 2.18179988861084,0 2.18179988861084,0 C2.18179988861084,0 2.18179988861084,1.454300045967102 2.18179988861084,1.454300045967102 C2.18179988861084,1.454300045967102 0,1.454300045967102 0,1.454300045967102 C0,1.454300045967102 0,0 0,0 C0,0 0,0 0,0z"></path>
        </g>
        <g transform="matrix(1,0,0,1,13.818399429321289,7.272900104522705)" opacity="1"
            style="display: block;">
            <path fill="rgb(36,42,46)" fill-opacity="1"
                d=" M0,0 C0,0 2.18179988861084,0 2.18179988861084,0 C2.18179988861084,0 2.18179988861084,1.454300045967102 2.18179988861084,1.454300045967102 C2.18179988861084,1.454300045967102 0,1.454300045967102 0,1.454300045967102 C0,1.454300045967102 0,0 0,0 C0,0 0,0 0,0z"></path>
        </g>
        <g
            transform="matrix(0.9999999403953552,0,0,0.9999999403953552,7.273399829864502,13.818400382995605)"
            opacity="1" style="display: block;">
            <path fill="rgb(36,42,46)" fill-opacity="1"
                d=" M0,0 C0,0 1.454300045967102,0 1.454300045967102,0 C1.454300045967102,0 1.454300045967102,2.18179988861084 1.454300045967102,2.18179988861084 C1.454300045967102,2.18179988861084 0,2.18179988861084 0,2.18179988861084 C0,2.18179988861084 0,0 0,0 C0,0 0,0 0,0z"></path>
        </g>
        <g transform="matrix(1,0,0,1,7.273399829864502,10.181600570678711)" opacity="1"
            style="display: block;">
            <path fill="rgb(36,42,46)" fill-opacity="1"
                d=" M0,0 C0,0 1.454300045967102,0 1.454300045967102,0 C1.454300045967102,0 1.454300045967102,2.18179988861084 1.454300045967102,2.18179988861084 C1.454300045967102,2.18179988861084 0,2.18179988861084 0,2.18179988861084 C0,2.18179988861084 0,0 0,0 C0,0 0,0 0,0z"></path>
        </g>
        <g transform="matrix(1,0,0,1,7.273399829864502,3.636199951171875)" opacity="1"
            style="display: block;">
            <path fill="rgb(36,42,46)" fill-opacity="1"
                d=" M0,0 C0,0 1.454300045967102,0 1.454300045967102,0 C1.454300045967102,0 1.454300045967102,2.18179988861084 1.454300045967102,2.18179988861084 C1.454300045967102,2.18179988861084 0,2.18179988861084 0,2.18179988861084 C0,2.18179988861084 0,0 0,0 C0,0 0,0 0,0z"></path>
        </g>
        <g transform="matrix(1,0,0,1,7.273399829864502,0)" opacity="1" style="display: block;">
            <path fill="rgb(36,42,46)" fill-opacity="1"
                d=" M0,0 C0,0 1.454300045967102,0 1.454300045967102,0 C1.454300045967102,0 1.454300045967102,2.18179988861084 1.454300045967102,2.18179988861084 C1.454300045967102,2.18179988861084 0,2.18179988861084 0,2.18179988861084 C0,2.18179988861084 0,0 0,0 C0,0 0,0 0,0z"></path>
        </g>
        <g transform="matrix(1,0,0,1,13.42870044708252,13.426799774169922)" opacity="1"
            style="display: block;">
            <path fill="rgb(36,42,46)" fill-opacity="1"
                d=" M1.5427000522613525,2.571500062942505 C1.5427000522613525,2.571500062942505 0,1.0282000303268433 0,1.0282000303268433 C0,1.0282000303268433 1.0285999774932861,0 1.0285999774932861,0 C1.0285999774932861,0 2.5713000297546387,1.5433000326156616 2.5713000297546387,1.5433000326156616 C2.5713000297546387,1.5433000326156616 1.5427000522613525,2.571500062942505 1.5427000522613525,2.571500062942505 C1.5427000522613525,2.571500062942505 1.5427000522613525,2.571500062942505 1.5427000522613525,2.571500062942505z"></path>
        </g>
        <g
            transform="matrix(0.9999999403953552,0,0,0.9999999403953552,10.858400344848633,10.857400894165039)"
            opacity="1" style="display: block;">
            <path fill="rgb(36,42,46)" fill-opacity="1"
                d=" M1.5426000356674194,2.5708999633789062 C1.5426000356674194,2.5708999633789062 0,1.0283000469207764 0,1.0283000469207764 C0,1.0283000469207764 1.02839994430542,-0.00009999999747378752 1.02839994430542,-0.00009999999747378752 C1.02839994430542,-0.00009999999747378752 2.571000099182129,1.5425000190734863 2.571000099182129,1.5425000190734863 C2.571000099182129,1.5425000190734863 1.5426000356674194,2.5708999633789062 1.5426000356674194,2.5708999633789062 C1.5426000356674194,2.5708999633789062 1.5426000356674194,2.5708999633789062 1.5426000356674194,2.5708999633789062z"></path>
        </g>
        <g transform="matrix(1,0,0,1,2.5703001022338867,2.5703001022338867)" opacity="1"
            style="display: block;">
            <path fill="rgb(36,42,46)" fill-opacity="1"
                d=" M1.5433000326156616,2.571700096130371 C1.5433000326156616,2.571700096130371 0,1.0290000438690186 0,1.0290000438690186 C0,1.0290000438690186 1.028499960899353,0.00009999999747378752 1.028499960899353,0.00009999999747378752 C1.028499960899353,0.00009999999747378752 2.5717999935150146,1.542799949645996 2.5717999935150146,1.542799949645996 C2.5717999935150146,1.542799949645996 1.5433000326156616,2.571700096130371 1.5433000326156616,2.571700096130371 C1.5433000326156616,2.571700096130371 1.5433000326156616,2.571700096130371 1.5433000326156616,2.571700096130371z"></path>
        </g>
        <g transform="matrix(1,0,0,1,0,0.0004999637603759766)" opacity="1" style="display: block;">
            <path fill="rgb(36,42,46)" fill-opacity="1"
                d=" M1.5426000356674194,2.5708999633789062 C1.5426000356674194,2.5708999633789062 0,1.0283000469207764 0,1.0283000469207764 C0,1.0283000469207764 1.02839994430542,-0.00009999999747378752 1.02839994430542,-0.00009999999747378752 C1.02839994430542,-0.00009999999747378752 2.571000099182129,1.5425000190734863 2.571000099182129,1.5425000190734863 C2.571000099182129,1.5425000190734863 1.5426000356674194,2.5708999633789062 1.5426000356674194,2.5708999633789062 C1.5426000356674194,2.5708999633789062 1.5426000356674194,2.5708999633789062 1.5426000356674194,2.5708999633789062z"></path>
        </g>
        <g transform="matrix(1,0,0,1,13.42770004272461,0.0005000829696655273)" opacity="1"
            style="display: block;">
            <path fill="rgb(36,42,46)" fill-opacity="1"
                d=" M2.571500062942505,1.0285999774932861 C2.571500062942505,1.0285999774932861 1.0282000303268433,2.5713000297546387 1.0282000303268433,2.5713000297546387 C1.0282000303268433,2.5713000297546387 0,1.5427000522613525 0,1.5427000522613525 C0,1.5427000522613525 1.5433000326156616,0 1.5433000326156616,0 C1.5433000326156616,0 2.571500062942505,1.0285999774932861 2.571500062942505,1.0285999774932861 C2.571500062942505,1.0285999774932861 2.571500062942505,1.0285999774932861 2.571500062942505,1.0285999774932861z"></path>
        </g>
        <g transform="matrix(1,0,0,1,10.857400894165039,2.5708000659942627)" opacity="1"
            style="display: block;">
            <path fill="rgb(36,42,46)" fill-opacity="1"
                d=" M2.5708999633789062,1.02839994430542 C2.5708999633789062,1.02839994430542 1.0283000469207764,2.571000099182129 1.0283000469207764,2.571000099182129 C1.0283000469207764,2.571000099182129 -0.00009999999747378752,1.5427000522613525 -0.00009999999747378752,1.5427000522613525 C-0.00009999999747378752,1.5427000522613525 1.5425000190734863,0.00009999999747378752 1.5425000190734863,0.00009999999747378752 C1.5425000190734863,0.00009999999747378752 2.5708999633789062,1.02839994430542 2.5708999633789062,1.02839994430542 C2.5708999633789062,1.02839994430542 2.5708999633789062,1.02839994430542 2.5708999633789062,1.02839994430542z"></path>
        </g>
        <g transform="matrix(1,0,0,1,2.5713000297546387,10.857399940490723)" opacity="1"
            style="display: block;">
            <path fill="rgb(36,42,46)" fill-opacity="1"
                d=" M2.5717999935150146,1.0285999774932861 C2.5717999935150146,1.0285999774932861 1.0285999774932861,2.5717999935150146 1.0285999774932861,2.5717999935150146 C1.0285999774932861,2.5717999935150146 0,1.5432000160217285 0,1.5432000160217285 C0,1.5432000160217285 1.5432000160217285,0 1.5432000160217285,0 C1.5432000160217285,0 2.5717999935150146,1.0285999774932861 2.5717999935150146,1.0285999774932861 C2.5717999935150146,1.0285999774932861 2.5717999935150146,1.0285999774932861 2.5717999935150146,1.0285999774932861z"></path>
        </g>
        <g transform="matrix(1,0,0,1,0,13.428699493408203)" opacity="1" style="display: block;">
            <path fill="rgb(36,42,46)" fill-opacity="1"
                d=" M2.5708999633789062,1.02839994430542 C2.5708999633789062,1.02839994430542 1.0283000469207764,2.571000099182129 1.0283000469207764,2.571000099182129 C1.0283000469207764,2.571000099182129 -0.00009999999747378752,1.5427000522613525 -0.00009999999747378752,1.5427000522613525 C-0.00009999999747378752,1.5427000522613525 1.5425000190734863,0.00009999999747378752 1.5425000190734863,0.00009999999747378752 C1.5425000190734863,0.00009999999747378752 2.5708999633789062,1.02839994430542 2.5708999633789062,1.02839994430542 C2.5708999633789062,1.02839994430542 2.5708999633789062,1.02839994430542 2.5708999633789062,1.02839994430542z"></path>
        </g>
    </g>
</svg>