<svg xmlns="http://www.w3.org/2000/svg" viewBox="0 0 16 16" width="16" height="16"
    preserveAspectRatio="xMidYMid meet"
    style="width: 100%; height: 100%; transform: translate3d(0px, 0px, 0px);">
    <defs>
        <clipPath id="__lottie_element_132">
            <rect width="16" height="16" x="0" y="0"></rect>
        </clipPath>
    </defs>
    <g clip-path="url(#__lottie_element_132)">
        <g transform="matrix(1,0,0,1,4,0)" opacity="1" style="display: block;">
            <path fill="rgb(36,42,46)" fill-opacity="1"
                d=" M0,1.3335000276565552 C0,1.3335000276565552 6.4492998123168945,1.3335000276565552 6.4492998123168945,1.3335000276565552 C8.778690338134766,1.3335000276565552 10.666799545288086,3.2223000526428223 10.666799545288086,5.551700115203857 C10.666799545288086,7.880660057067871 8.779000282287598,9.768500328063965 6.4492998123168945,9.768500328063965 C6.4492998123168945,9.768500328063965 0,9.768400192260742 0,9.768400192260742 C0,9.768400192260742 0,11.101799964904785 0,11.101799964904785 C0,11.101799964904785 6.4492998123168945,11.101799964904785 6.4492998123168945,11.101799964904785 C9.515159606933594,11.101799964904785 12,8.616800308227539 12,5.551400184631348 C12,2.485830068588257 9.51509952545166,0 6.4492998123168945,0 C6.4492998123168945,0 0,0 0,0 C0,0 0,1.3335000276565552 0,1.3335000276565552 C0,1.3335000276565552 0,1.3335000276565552 0,1.3335000276565552z"></path>
        </g>
        <g transform="matrix(1,0,0,1,0,4.898199558258057)" opacity="1" style="display: block;">
            <path fill="rgb(36,42,46)" fill-opacity="1"
                d=" M12,9.76830005645752 C12,9.76830005645752 5.5507001876831055,9.76830005645752 5.5507001876831055,9.76830005645752 C3.2213099002838135,9.76830005645752 1.3331999778747559,7.8790998458862305 1.3331999778747559,5.550099849700928 C1.3331999778747559,3.221139907836914 3.2209999561309814,1.333299994468689 5.5507001876831055,1.333299994468689 C5.5507001876831055,1.333299994468689 12,1.333400011062622 12,1.333400011062622 C12,1.333400011062622 12,0 12,0 C12,0 5.5507001876831055,0 5.5507001876831055,0 C2.484839916229248,0 0,2.484999895095825 0,5.5503997802734375 C0,8.61596965789795 2.4848999977111816,11.101799964904785 5.5507001876831055,11.101799964904785 C5.5507001876831055,11.101799964904785 12,11.101799964904785 12,11.101799964904785 C12,11.101799964904785 12,9.76830005645752 12,9.76830005645752 C12,9.76830005645752 12,9.76830005645752 12,9.76830005645752z"></path>
        </g>
    </g>
</svg>