<svg xmlns="http://www.w3.org/2000/svg" viewBox="0 0 16 16" width="16" height="16"
    preserveAspectRatio="xMidYMid meet"
    style="width: 100%; height: 100%; transform: translate3d(0px, 0px, 0px);">
    <defs>
        <clipPath id="__lottie_element_40">
            <rect width="16" height="16" x="0" y="0"></rect>
        </clipPath>
    </defs>
    <g clip-path="url(#__lottie_element_40)">
        <g transform="matrix(1,0,0,1,4.713500022888184,0)" opacity="1" style="display: block;">
            <path fill="rgb(36,42,46)" fill-opacity="1"
                d=" M3.286600112915039,2.3431999683380127 C3.286600112915039,2.3431999683380127 5.629000186920166,0 5.629000186920166,0 C5.629000186920166,0 6.572500228881836,0.9434000253677368 6.572500228881836,0.9434000253677368 C6.572500228881836,0.9434000253677368 4.229499816894531,3.285900115966797 4.229499816894531,3.285900115966797 C4.229499816894531,3.285900115966797 7.05810022354126,6.11460018157959 7.05810022354126,6.11460018157959 C7.05810022354126,6.11460018157959 6.115600109100342,7.057300090789795 6.115600109100342,7.057300090789795 C6.115600109100342,7.057300090789795 0.00019999999494757503,0.9430000185966492 0.00019999999494757503,0.9430000185966492 C0.00019999999494757503,0.9430000185966492 0.9435999989509583,0.00019999999494757503 0.9435999989509583,0.00019999999494757503 C0.9435999989509583,0.00019999999494757503 3.286600112915039,2.3431999683380127 3.286600112915039,2.3431999683380127 C3.286600112915039,2.3431999683380127 3.286600112915039,2.3431999683380127 3.286600112915039,2.3431999683380127z"></path>
        </g>
        <g
            transform="matrix(0.999999463558197,0,0,0.999999463558197,8.942802429199219,4.714201927185059)"
            opacity="1" style="display: block;">
            <path fill="rgb(36,42,46)" fill-opacity="1"
                d=" M4.714099884033203,3.285799980163574 C4.714099884033203,3.285799980163574 7.057300090789795,5.628200054168701 7.057300090789795,5.628200054168701 C7.057300090789795,5.628200054168701 6.113900184631348,6.571700096130371 6.113900184631348,6.571700096130371 C6.113900184631348,6.571700096130371 3.770699977874756,4.228700160980225 3.770699977874756,4.228700160980225 C3.770699977874756,4.228700160980225 0.9427000284194946,7.057300090789795 0.9427000284194946,7.057300090789795 C0.9427000284194946,7.057300090789795 0,6.114799976348877 0,6.114799976348877 C0,6.114799976348877 6.114299774169922,0.00009999999747378752 6.114299774169922,0.00009999999747378752 C6.114299774169922,0.00009999999747378752 7.05709981918335,0.942799985408783 7.05709981918335,0.942799985408783 C7.05709981918335,0.942799985408783 4.714099884033203,3.285799980163574 4.714099884033203,3.285799980163574 C4.714099884033203,3.285799980163574 4.714099884033203,3.285799980163574 4.714099884033203,3.285799980163574z"></path>
        </g>
        <g transform="matrix(1,0,0,1,4.229300498962402,8.942700386047363)" opacity="1"
            style="display: block;">
            <path fill="rgb(36,42,46)" fill-opacity="1"
                d=" M3.771399974822998,4.714099884033203 C3.771399974822998,4.714099884033203 1.4290000200271606,7.057300090789795 1.4290000200271606,7.057300090789795 C1.4290000200271606,7.057300090789795 0.48559999465942383,6.113900184631348 0.48559999465942383,6.113900184631348 C0.48559999465942383,6.113900184631348 2.8287999629974365,3.770699977874756 2.8287999629974365,3.770699977874756 C2.8287999629974365,3.770699977874756 0,0.9427000284194946 0,0.9427000284194946 C0,0.9427000284194946 0.9424999952316284,0 0.9424999952316284,0 C0.9424999952316284,0 7.057199954986572,6.114299774169922 7.057199954986572,6.114299774169922 C7.057199954986572,6.114299774169922 6.1143999099731445,7.05709981918335 6.1143999099731445,7.05709981918335 C6.1143999099731445,7.05709981918335 3.771399974822998,4.714099884033203 3.771399974822998,4.714099884033203 C3.771399974822998,4.714099884033203 3.771399974822998,4.714099884033203 3.771399974822998,4.714099884033203z"></path>
        </g>
        <g transform="matrix(1,0,0,1,0,4.22790002822876)" opacity="1" style="display: block;">
            <path fill="rgb(36,42,46)" fill-opacity="1"
                d=" M2.3431999683380127,3.7720999717712402 C2.3431999683380127,3.7720999717712402 0,1.4289000034332275 0,1.4289000034332275 C0,1.4289000034332275 0.9434000253677368,0.4855000078678131 0.9434000253677368,0.4855000078678131 C0.9434000253677368,0.4855000078678131 3.286600112915039,2.8292999267578125 3.286600112915039,2.8292999267578125 C3.286600112915039,2.8292999267578125 6.11460018157959,0 6.11460018157959,0 C6.11460018157959,0 7.057300090789795,0.9427000284194946 7.057300090789795,0.9427000284194946 C7.057300090789795,0.9427000284194946 0.9430000185966492,7.05810022354126 0.9430000185966492,7.05810022354126 C0.9430000185966492,7.05810022354126 0.00019999999494757503,6.1153998374938965 0.00019999999494757503,6.1153998374938965 C0.00019999999494757503,6.1153998374938965 2.3431999683380127,3.7720999717712402 2.3431999683380127,3.7720999717712402 C2.3431999683380127,3.7720999717712402 2.3431999683380127,3.7720999717712402 2.3431999683380127,3.7720999717712402z"></path>
        </g>
    </g>
</svg>